<svg width="588" height="39" viewBox="0 0 588 39" fill="none" xmlns="http://www.w3.org/2000/svg">
<g clip-path="url(#clip0_6_150)">
<path d="M570.72 9.38H584.97V10.77H570.72V9.38Z" fill="#0C0421"/>
<path d="M585.64 11.94C584.613 11.94 583.78 11.1073 583.78 10.08C583.78 9.05278 584.613 8.22003 585.64 8.22003C586.667 8.22003 587.5 9.05278 587.5 10.08C587.5 11.1073 586.667 11.94 585.64 11.94Z" fill="#0C0421"/>
<path d="M570.5 9.49002L582.85 2.36002L583.54 3.57002L571.2 10.7L570.5 9.49002Z" fill="#0C0421"/>
<path d="M583.78 4.49002C582.753 4.49002 581.92 3.65727 581.92 2.63002C581.92 1.60277 582.753 0.77002 583.78 0.77002C584.807 0.77002 585.64 1.60277 585.64 2.63002C585.64 3.65727 584.807 4.49002 583.78 4.49002Z" fill="#0C0421"/>
<path d="M570.5 10.66L571.2 9.45001L583.54 16.58L582.85 17.79L570.5 10.66Z" fill="#0C0421"/>
<path d="M583.78 19.38C582.753 19.38 581.92 18.5473 581.92 17.52C581.92 16.4928 582.753 15.66 583.78 15.66C584.807 15.66 585.64 16.4928 585.64 17.52C585.64 18.5473 584.807 19.38 583.78 19.38Z" fill="#0C0421"/>
<path d="M250.12 36.92C261.8 36.92 272.79 32.37 281.05 24.11L282.72 22.44C291.23 13.93 302.54 9.25003 314.57 9.25003H571.53V10.56H314.57C302.89 10.56 291.9 15.11 283.64 23.37L281.97 25.04C273.46 33.55 262.15 38.23 250.12 38.23H0.499756V36.92H250.12Z" fill="#0C0421"/>
</g>
<defs>
<clipPath id="clip0_6_150">
<rect width="587" height="37.46" fill="white" transform="matrix(-1 0 0 1 587.5 0.77002)"/>
</clipPath>
</defs>
</svg>
