<svg width="588" height="38" viewBox="0 0 588 38" fill="none" xmlns="http://www.w3.org/2000/svg">
<g clip-path="url(#clip0_6_164)">
<path d="M17.2798 8.88002H3.02979V10.27H17.2798V8.88002Z" fill="#0C0421"/>
<path d="M2.36 11.44C3.38725 11.44 4.22 10.6073 4.22 9.58002C4.22 8.55277 3.38725 7.72002 2.36 7.72002C1.33275 7.72002 0.5 8.55277 0.5 9.58002C0.5 10.6073 1.33275 11.44 2.36 11.44Z" fill="#0C0421"/>
<path d="M17.5 8.99002L5.14996 1.86002L4.45996 3.07002L16.8 10.2L17.5 8.99002Z" fill="#0C0421"/>
<path d="M4.21986 3.99002C5.24711 3.99002 6.07986 3.15727 6.07986 2.13002C6.07986 1.10277 5.24711 0.27002 4.21986 0.27002C3.19261 0.27002 2.35986 1.10277 2.35986 2.13002C2.35986 3.15727 3.19261 3.99002 4.21986 3.99002Z" fill="#0C0421"/>
<path d="M17.5 10.16L16.8 8.95002L4.45996 16.08L5.14996 17.29L17.5 10.16Z" fill="#0C0421"/>
<path d="M4.21986 18.88C5.24711 18.88 6.07986 18.0473 6.07986 17.02C6.07986 15.9928 5.24711 15.16 4.21986 15.16C3.19261 15.16 2.35986 15.9928 2.35986 17.02C2.35986 18.0473 3.19261 18.88 4.21986 18.88Z" fill="#0C0421"/>
<path d="M337.88 36.42C326.2 36.42 315.21 31.87 306.95 23.61L305.28 21.94C296.77 13.43 285.46 8.75002 273.43 8.75002H16.4702V10.06H273.43C285.11 10.06 296.1 14.61 304.36 22.87L306.03 24.54C314.54 33.05 325.85 37.73 337.88 37.73H587.5V36.42H337.88Z" fill="#0C0421"/>
</g>
<defs>
<clipPath id="clip0_6_164">
<rect width="587" height="37.46" fill="white" transform="translate(0.5 0.27002)"/>
</clipPath>
</defs>
</svg>
